<?xml version="1.0" encoding="UTF-8"?>
<svg xmlns="http://www.w3.org/2000/svg" viewBox="0 0 410 330" role="img" aria-label="columb logo" preserveAspectRatio="xMidYMid meet">
  <path d="M 175.00,316.00 L 176.00,315.00 L 177.00,316.00 L 176.00,317.00 Z
M 116.00,313.00 L 117.00,312.00 L 118.00,313.00 L 117.00,314.00 Z
M 121.00,309.00 L 122.00,311.00 L 118.00,313.00 L 117.00,312.00 Z
M 86.00,254.00 L 87.00,255.00 L 87.00,258.00 L 86.00,259.00 L 87.00,261.00 L 86.00,263.00 L 86.00,284.00 L 87.00,285.00 L 87.00,287.00 L 89.00,289.00 L 90.00,292.00 L 92.00,294.00 L 91.00,295.00 L 87.00,295.00 L 85.00,293.00 L 83.00,289.00 L 83.00,284.00 L 82.00,283.00 L 82.00,273.00 L 83.00,272.00 L 83.00,265.00 L 84.00,264.00 L 84.00,257.00 Z
M 21.00,240.00 L 22.00,239.00 L 25.00,239.00 L 27.00,241.00 L 28.00,241.00 L 34.00,247.00 L 35.00,247.00 L 36.00,249.00 L 37.00,249.00 L 43.00,254.00 L 44.00,254.00 L 47.00,257.00 L 47.00,258.00 L 49.00,257.00 L 48.00,254.00 L 44.00,250.00 L 42.00,246.00 L 36.00,241.00 L 38.00,239.00 L 39.00,240.00 L 40.00,239.00 L 46.00,239.00 L 47.00,240.00 L 49.00,239.00 L 54.00,239.00 L 55.00,240.00 L 58.00,239.00 L 59.00,241.00 L 54.00,251.00 L 59.00,247.00 L 61.00,248.00 L 61.00,261.00 L 60.00,263.00 L 56.00,265.00 L 55.00,264.00 L 54.00,265.00 L 40.00,265.00 L 39.00,264.00 L 38.00,265.00 L 35.00,265.00 L 32.00,263.00 L 32.00,254.00 L 31.00,253.00 L 31.00,250.00 L 29.00,248.00 L 29.00,247.00 L 28.00,247.00 Z
M 86.00,226.00 L 87.00,227.00 L 87.00,237.00 L 85.00,239.00 L 81.00,239.00 L 75.00,242.00 L 70.00,243.00 L 69.00,242.00 L 69.00,240.00 L 73.00,236.00 L 74.00,236.00 L 77.00,233.00 L 78.00,233.00 L 81.00,230.00 L 82.00,230.00 Z
M 103.00,219.00 L 108.00,220.00 L 111.00,222.00 L 111.00,228.00 L 108.00,231.00 L 102.00,231.00 L 100.00,228.00 L 101.00,221.00 Z
M 106.00,209.00 L 119.00,184.00 L 136.00,162.00 L 154.00,146.00 L 174.00,136.00 L 215.00,156.00 L 265.00,191.00 L 292.00,214.00 L 289.00,218.00 L 284.00,220.00 L 272.00,220.00 L 245.00,210.00 L 274.00,234.00 L 264.00,238.00 L 242.00,238.00 L 221.00,232.00 L 228.00,238.00 L 250.00,250.00 L 242.00,252.00 L 224.00,250.00 L 190.00,236.00 L 172.00,223.00 L 153.00,202.00 L 146.00,189.00 L 143.00,177.00 L 143.00,166.00 L 135.00,183.00 L 137.00,200.00 L 149.00,221.00 L 168.00,240.00 L 187.00,252.00 L 209.00,261.00 L 229.00,265.00 L 244.00,265.00 L 260.00,259.00 L 272.00,249.00 L 287.00,243.00 L 303.00,227.00 L 307.00,226.00 L 327.00,239.00 L 338.00,249.00 L 327.00,255.00 L 288.00,259.00 L 284.00,261.00 L 284.00,267.00 L 332.00,267.00 L 350.00,276.00 L 392.00,302.00 L 381.00,303.00 L 358.00,299.00 L 316.00,283.00 L 316.00,277.00 L 274.00,282.00 L 245.00,283.00 L 231.00,290.00 L 216.00,293.00 L 196.00,293.00 L 171.00,288.00 L 149.00,278.00 L 140.00,272.00 L 130.00,259.00 L 123.00,232.00 L 123.00,207.00 L 127.00,188.00 L 120.00,198.00 L 116.00,210.00 L 113.00,212.00 Z
M 85.00,67.00 L 80.00,70.00 L 78.00,74.00 L 78.00,80.00 L 79.00,82.00 L 82.00,85.00 L 84.00,86.00 L 90.00,86.00 L 92.00,85.00 L 95.00,82.00 L 97.00,78.00 L 97.00,74.00 L 94.00,69.00 L 90.00,67.00 Z
M 68.00,35.00 L 69.00,34.00 L 74.00,34.00 L 78.00,36.00 L 82.00,36.00 L 83.00,37.00 L 86.00,37.00 L 87.00,38.00 L 94.00,39.00 L 95.00,40.00 L 97.00,40.00 L 98.00,41.00 L 100.00,41.00 L 101.00,42.00 L 103.00,42.00 L 104.00,43.00 L 106.00,43.00 L 107.00,44.00 L 109.00,44.00 L 110.00,45.00 L 112.00,45.00 L 113.00,46.00 L 115.00,46.00 L 116.00,47.00 L 118.00,47.00 L 119.00,48.00 L 121.00,48.00 L 122.00,49.00 L 124.00,49.00 L 125.00,50.00 L 127.00,50.00 L 128.00,51.00 L 130.00,51.00 L 131.00,52.00 L 133.00,52.00 L 134.00,53.00 L 136.00,53.00 L 137.00,54.00 L 142.00,55.00 L 148.00,58.00 L 149.00,59.00 L 149.00,61.00 L 147.00,63.00 L 145.00,63.00 L 137.00,59.00 L 135.00,59.00 L 134.00,58.00 L 132.00,58.00 L 131.00,57.00 L 126.00,56.00 L 123.00,54.00 L 121.00,54.00 L 120.00,53.00 L 118.00,53.00 L 117.00,52.00 L 115.00,52.00 L 114.00,51.00 L 109.00,50.00 L 106.00,48.00 L 104.00,48.00 L 100.00,46.00 L 97.00,46.00 L 96.00,45.00 L 91.00,44.00 L 88.00,42.00 L 86.00,42.00 L 85.00,41.00 L 83.00,41.00 L 82.00,40.00 L 80.00,40.00 L 79.00,39.00 L 77.00,39.00 L 76.00,38.00 L 71.00,37.00 Z
M 70.00,24.00 L 70.00,20.00 L 73.00,18.00 L 75.00,18.00 L 76.00,19.00 L 81.00,19.00 L 82.00,20.00 L 85.00,20.00 L 86.00,21.00 L 89.00,21.00 L 90.00,22.00 L 85.00,27.00 L 72.00,27.00 Z
M 62.00,2.00 L 61.00,9.00 L 63.00,23.00 L 60.00,31.00 L 54.00,35.00 L 36.00,39.00 L 31.00,43.00 L 31.00,48.00 L 34.00,51.00 L 48.00,58.00 L 47.00,68.00 L 40.00,75.00 L 31.00,80.00 L 23.00,88.00 L 19.00,95.00 L 21.00,98.00 L 34.00,99.00 L 47.00,104.00 L 56.00,114.00 L 57.00,131.00 L 53.00,157.00 L 53.00,178.00 L 58.00,201.00 L 74.00,201.00 L 70.00,191.00 L 68.00,175.00 L 70.00,116.00 L 67.00,105.00 L 60.00,95.00 L 66.00,94.00 L 64.00,92.00 L 39.00,86.00 L 56.00,79.00 L 58.00,77.00 L 59.00,68.00 L 65.00,60.00 L 71.00,58.00 L 79.00,60.00 L 99.00,60.00 L 117.00,63.00 L 136.00,70.00 L 140.00,75.00 L 147.00,100.00 L 158.00,125.00 L 131.00,146.00 L 114.00,164.00 L 96.00,189.00 L 87.00,206.00 L 20.00,213.00 L 15.00,216.00 L 10.00,228.00 L 4.00,265.00 L 4.00,284.00 L 7.00,291.00 L 13.00,297.00 L 27.00,301.00 L 97.00,301.00 L 107.00,298.00 L 111.00,290.00 L 110.00,245.00 L 112.00,243.00 L 116.00,274.00 L 124.00,281.00 L 140.00,289.00 L 144.00,294.00 L 143.00,300.00 L 140.00,302.00 L 121.00,301.00 L 113.00,304.00 L 105.00,311.00 L 103.00,315.00 L 104.00,319.00 L 108.00,319.00 L 115.00,313.00 L 117.00,314.00 L 115.00,320.00 L 118.00,321.00 L 151.00,315.00 L 154.00,312.00 L 155.00,303.00 L 158.00,297.00 L 179.00,302.00 L 176.00,307.00 L 158.00,315.00 L 153.00,321.00 L 154.00,324.00 L 159.00,324.00 L 175.00,316.00 L 176.00,317.00 L 170.00,322.00 L 170.00,325.00 L 193.00,321.00 L 215.00,320.00 L 217.00,317.00 L 213.00,312.00 L 193.00,309.00 L 203.00,304.00 L 225.00,303.00 L 238.00,298.00 L 252.00,296.00 L 303.00,293.00 L 332.00,305.00 L 366.00,312.00 L 396.00,311.00 L 405.00,307.00 L 409.00,303.00 L 409.00,298.00 L 407.00,295.00 L 352.00,264.00 L 361.00,259.00 L 363.00,256.00 L 362.00,252.00 L 357.00,247.00 L 327.00,228.00 L 242.00,161.00 L 201.00,135.00 L 183.00,126.00 L 168.00,114.00 L 160.00,99.00 L 153.00,77.00 L 153.00,70.00 L 166.00,58.00 L 169.00,52.00 L 167.00,47.00 L 158.00,38.00 L 137.00,23.00 L 109.00,9.00 L 75.00,0.00 L 66.00,0.00 Z" fill="#FFFFFF" fill-rule="evenodd"/>
</svg>
