<?xml version="1.0" encoding="UTF-8"?>
<svg xmlns="http://www.w3.org/2000/svg" viewBox="0 0 529 484" role="img" aria-label="columb logo" preserveAspectRatio="xMidYMid meet">
  <path d="M 453.00,416.00 L 465.00,416.00 L 471.00,419.00 L 473.00,421.00 L 473.00,422.00 L 475.00,424.00 L 477.00,428.00 L 477.00,430.00 L 478.00,431.00 L 478.00,435.00 L 479.00,436.00 L 479.00,444.00 L 478.00,445.00 L 478.00,448.00 L 477.00,449.00 L 477.00,451.00 L 476.00,453.00 L 474.00,455.00 L 474.00,456.00 L 469.00,461.00 L 465.00,463.00 L 462.00,463.00 L 461.00,464.00 L 451.00,464.00 L 450.00,463.00 L 445.00,463.00 L 444.00,462.00 L 442.00,462.00 L 440.00,460.00 L 440.00,431.00 L 441.00,430.00 L 441.00,427.00 L 443.00,423.00 L 447.00,419.00 Z
M 122.00,414.00 L 124.00,414.00 L 125.00,415.00 L 129.00,415.00 L 130.00,416.00 L 132.00,416.00 L 134.00,417.00 L 141.00,424.00 L 143.00,428.00 L 143.00,430.00 L 144.00,431.00 L 144.00,436.00 L 145.00,437.00 L 145.00,442.00 L 144.00,443.00 L 144.00,448.00 L 141.00,454.00 L 139.00,456.00 L 139.00,457.00 L 136.00,460.00 L 130.00,463.00 L 126.00,463.00 L 125.00,464.00 L 123.00,464.00 L 122.00,463.00 L 117.00,463.00 L 111.00,460.00 L 105.00,454.00 L 103.00,450.00 L 103.00,448.00 L 102.00,447.00 L 102.00,443.00 L 101.00,442.00 L 101.00,435.00 L 102.00,434.00 L 102.00,430.00 L 106.00,422.00 L 112.00,417.00 L 114.00,416.00 L 116.00,416.00 L 117.00,415.00 L 121.00,415.00 Z
M 213.00,402.00 L 213.00,455.00 L 214.00,456.00 L 214.00,462.00 L 218.00,470.00 L 222.00,474.00 L 227.00,477.00 L 229.00,477.00 L 230.00,478.00 L 236.00,478.00 L 237.00,479.00 L 242.00,479.00 L 243.00,478.00 L 248.00,478.00 L 249.00,477.00 L 251.00,477.00 L 257.00,474.00 L 263.00,468.00 L 265.00,469.00 L 265.00,476.00 L 285.00,476.00 L 285.00,473.00 L 284.00,472.00 L 284.00,402.00 L 263.00,402.00 L 263.00,450.00 L 261.00,455.00 L 256.00,460.00 L 249.00,463.00 L 242.00,463.00 L 238.00,461.00 L 234.00,456.00 L 234.00,453.00 L 233.00,452.00 L 233.00,402.00 Z
M 299.00,402.00 L 299.00,476.00 L 319.00,476.00 L 319.00,427.00 L 325.00,419.00 L 330.00,417.00 L 337.00,418.00 L 341.00,422.00 L 343.00,428.00 L 343.00,476.00 L 362.00,476.00 L 363.00,474.00 L 362.00,473.00 L 362.00,428.00 L 365.00,421.00 L 372.00,417.00 L 380.00,418.00 L 384.00,422.00 L 385.00,425.00 L 385.00,476.00 L 406.00,476.00 L 405.00,419.00 L 401.00,409.00 L 396.00,404.00 L 389.00,401.00 L 379.00,400.00 L 368.00,403.00 L 358.00,410.00 L 355.00,406.00 L 349.00,402.00 L 337.00,400.00 L 327.00,403.00 L 318.00,411.00 L 317.00,403.00 L 315.00,401.00 Z
M 103.00,403.00 L 99.00,405.00 L 97.00,407.00 L 96.00,407.00 L 88.00,415.00 L 88.00,416.00 L 86.00,418.00 L 84.00,422.00 L 84.00,424.00 L 82.00,428.00 L 82.00,432.00 L 81.00,433.00 L 81.00,447.00 L 82.00,448.00 L 82.00,451.00 L 83.00,452.00 L 83.00,454.00 L 86.00,460.00 L 88.00,462.00 L 88.00,463.00 L 95.00,470.00 L 96.00,470.00 L 98.00,472.00 L 106.00,476.00 L 108.00,476.00 L 109.00,477.00 L 112.00,477.00 L 113.00,478.00 L 117.00,478.00 L 118.00,479.00 L 128.00,479.00 L 129.00,478.00 L 133.00,478.00 L 134.00,477.00 L 137.00,477.00 L 151.00,470.00 L 158.00,463.00 L 158.00,462.00 L 160.00,460.00 L 163.00,454.00 L 163.00,452.00 L 164.00,451.00 L 164.00,448.00 L 165.00,447.00 L 165.00,430.00 L 164.00,429.00 L 163.00,424.00 L 160.00,418.00 L 158.00,416.00 L 158.00,415.00 L 150.00,407.00 L 147.00,406.00 L 143.00,403.00 L 141.00,403.00 L 137.00,401.00 L 134.00,401.00 L 133.00,400.00 L 113.00,400.00 L 112.00,401.00 L 109.00,401.00 L 108.00,402.00 Z
M 17.00,409.00 L 10.00,417.00 L 7.00,423.00 L 7.00,425.00 L 5.00,429.00 L 5.00,434.00 L 4.00,435.00 L 4.00,443.00 L 5.00,444.00 L 5.00,449.00 L 6.00,450.00 L 7.00,455.00 L 13.00,465.00 L 17.00,469.00 L 27.00,475.00 L 29.00,475.00 L 33.00,477.00 L 36.00,477.00 L 37.00,478.00 L 43.00,478.00 L 44.00,479.00 L 49.00,479.00 L 50.00,478.00 L 59.00,478.00 L 60.00,477.00 L 66.00,476.00 L 74.00,472.00 L 74.00,468.00 L 72.00,465.00 L 72.00,463.00 L 70.00,460.00 L 70.00,458.00 L 64.00,461.00 L 58.00,462.00 L 57.00,463.00 L 53.00,463.00 L 52.00,464.00 L 46.00,464.00 L 45.00,463.00 L 38.00,462.00 L 28.00,453.00 L 25.00,446.00 L 25.00,443.00 L 24.00,442.00 L 24.00,435.00 L 25.00,434.00 L 26.00,428.00 L 29.00,423.00 L 33.00,419.00 L 41.00,415.00 L 57.00,415.00 L 67.00,420.00 L 69.00,420.00 L 70.00,416.00 L 74.00,409.00 L 74.00,407.00 L 65.00,402.00 L 63.00,402.00 L 62.00,401.00 L 58.00,401.00 L 57.00,400.00 L 36.00,400.00 L 35.00,401.00 L 29.00,402.00 Z
M 178.00,363.00 L 178.00,476.00 L 198.00,476.00 L 197.00,474.00 L 197.00,363.00 Z
M 421.00,363.00 L 421.00,473.00 L 426.00,475.00 L 429.00,475.00 L 430.00,476.00 L 434.00,476.00 L 435.00,477.00 L 442.00,477.00 L 443.00,478.00 L 450.00,478.00 L 451.00,479.00 L 462.00,479.00 L 463.00,478.00 L 468.00,478.00 L 469.00,477.00 L 475.00,476.00 L 481.00,473.00 L 492.00,463.00 L 497.00,454.00 L 498.00,448.00 L 499.00,447.00 L 499.00,431.00 L 498.00,430.00 L 498.00,426.00 L 497.00,425.00 L 497.00,423.00 L 494.00,417.00 L 484.00,406.00 L 481.00,405.00 L 479.00,403.00 L 477.00,403.00 L 473.00,401.00 L 467.00,401.00 L 466.00,400.00 L 461.00,400.00 L 460.00,401.00 L 456.00,401.00 L 455.00,402.00 L 450.00,403.00 L 445.00,406.00 L 441.00,410.00 L 440.00,409.00 L 440.00,363.00 L 434.00,363.00 L 433.00,362.00 L 432.00,363.00 Z
M 290.00,320.00 L 291.00,319.00 L 292.00,320.00 L 291.00,321.00 Z
M 231.00,317.00 L 232.00,316.00 L 233.00,317.00 L 232.00,318.00 Z
M 236.00,313.00 L 237.00,315.00 L 233.00,317.00 L 232.00,316.00 Z
M 201.00,258.00 L 202.00,259.00 L 202.00,262.00 L 201.00,263.00 L 202.00,265.00 L 201.00,267.00 L 201.00,288.00 L 202.00,289.00 L 202.00,291.00 L 204.00,293.00 L 205.00,296.00 L 207.00,298.00 L 206.00,299.00 L 202.00,299.00 L 200.00,297.00 L 198.00,293.00 L 198.00,288.00 L 197.00,287.00 L 197.00,277.00 L 198.00,276.00 L 198.00,269.00 L 199.00,268.00 L 199.00,261.00 Z
M 136.00,244.00 L 137.00,243.00 L 140.00,243.00 L 142.00,245.00 L 143.00,245.00 L 149.00,251.00 L 150.00,251.00 L 151.00,253.00 L 152.00,253.00 L 158.00,258.00 L 159.00,258.00 L 162.00,261.00 L 162.00,262.00 L 164.00,261.00 L 163.00,258.00 L 159.00,254.00 L 157.00,250.00 L 151.00,245.00 L 153.00,243.00 L 154.00,244.00 L 155.00,243.00 L 161.00,243.00 L 162.00,244.00 L 164.00,243.00 L 169.00,243.00 L 170.00,244.00 L 173.00,243.00 L 174.00,245.00 L 169.00,255.00 L 174.00,251.00 L 176.00,252.00 L 176.00,265.00 L 175.00,267.00 L 171.00,269.00 L 170.00,268.00 L 169.00,269.00 L 155.00,269.00 L 154.00,268.00 L 153.00,269.00 L 150.00,269.00 L 147.00,267.00 L 147.00,258.00 L 146.00,257.00 L 146.00,254.00 L 144.00,252.00 L 144.00,251.00 L 143.00,251.00 Z
M 201.00,230.00 L 202.00,231.00 L 202.00,241.00 L 200.00,243.00 L 196.00,243.00 L 190.00,246.00 L 185.00,247.00 L 184.00,246.00 L 184.00,244.00 L 188.00,240.00 L 189.00,240.00 L 192.00,237.00 L 193.00,237.00 L 196.00,234.00 L 197.00,234.00 Z
M 218.00,223.00 L 223.00,224.00 L 226.00,226.00 L 226.00,232.00 L 223.00,235.00 L 217.00,235.00 L 215.00,232.00 L 216.00,225.00 Z
M 221.00,213.00 L 234.00,188.00 L 251.00,166.00 L 269.00,150.00 L 289.00,140.00 L 330.00,160.00 L 380.00,195.00 L 407.00,218.00 L 404.00,222.00 L 399.00,224.00 L 387.00,224.00 L 360.00,214.00 L 389.00,238.00 L 379.00,242.00 L 357.00,242.00 L 336.00,236.00 L 343.00,242.00 L 365.00,254.00 L 357.00,256.00 L 339.00,254.00 L 305.00,240.00 L 287.00,227.00 L 268.00,206.00 L 261.00,193.00 L 258.00,181.00 L 258.00,170.00 L 250.00,187.00 L 252.00,204.00 L 264.00,225.00 L 283.00,244.00 L 302.00,256.00 L 324.00,265.00 L 344.00,269.00 L 359.00,269.00 L 375.00,263.00 L 387.00,253.00 L 402.00,247.00 L 418.00,231.00 L 422.00,230.00 L 442.00,243.00 L 453.00,253.00 L 442.00,259.00 L 403.00,263.00 L 399.00,265.00 L 399.00,271.00 L 447.00,271.00 L 465.00,280.00 L 507.00,306.00 L 496.00,307.00 L 473.00,303.00 L 431.00,287.00 L 431.00,281.00 L 389.00,286.00 L 360.00,287.00 L 346.00,294.00 L 331.00,297.00 L 311.00,297.00 L 286.00,292.00 L 264.00,282.00 L 255.00,276.00 L 245.00,263.00 L 238.00,236.00 L 238.00,211.00 L 242.00,192.00 L 235.00,202.00 L 231.00,214.00 L 228.00,216.00 Z
M 200.00,71.00 L 195.00,74.00 L 193.00,78.00 L 193.00,84.00 L 194.00,86.00 L 197.00,89.00 L 199.00,90.00 L 205.00,90.00 L 207.00,89.00 L 210.00,86.00 L 212.00,82.00 L 212.00,78.00 L 209.00,73.00 L 205.00,71.00 Z
M 183.00,39.00 L 184.00,38.00 L 189.00,38.00 L 193.00,40.00 L 197.00,40.00 L 198.00,41.00 L 201.00,41.00 L 202.00,42.00 L 209.00,43.00 L 210.00,44.00 L 212.00,44.00 L 213.00,45.00 L 215.00,45.00 L 216.00,46.00 L 218.00,46.00 L 219.00,47.00 L 221.00,47.00 L 222.00,48.00 L 224.00,48.00 L 225.00,49.00 L 227.00,49.00 L 228.00,50.00 L 230.00,50.00 L 231.00,51.00 L 233.00,51.00 L 234.00,52.00 L 236.00,52.00 L 237.00,53.00 L 239.00,53.00 L 240.00,54.00 L 242.00,54.00 L 243.00,55.00 L 245.00,55.00 L 246.00,56.00 L 248.00,56.00 L 249.00,57.00 L 251.00,57.00 L 252.00,58.00 L 257.00,59.00 L 263.00,62.00 L 264.00,63.00 L 264.00,65.00 L 262.00,67.00 L 260.00,67.00 L 252.00,63.00 L 250.00,63.00 L 249.00,62.00 L 247.00,62.00 L 246.00,61.00 L 241.00,60.00 L 238.00,58.00 L 236.00,58.00 L 235.00,57.00 L 233.00,57.00 L 232.00,56.00 L 230.00,56.00 L 229.00,55.00 L 224.00,54.00 L 221.00,52.00 L 219.00,52.00 L 215.00,50.00 L 212.00,50.00 L 211.00,49.00 L 206.00,48.00 L 203.00,46.00 L 201.00,46.00 L 200.00,45.00 L 198.00,45.00 L 197.00,44.00 L 195.00,44.00 L 194.00,43.00 L 192.00,43.00 L 191.00,42.00 L 186.00,41.00 Z
M 185.00,28.00 L 185.00,24.00 L 188.00,22.00 L 190.00,22.00 L 191.00,23.00 L 196.00,23.00 L 197.00,24.00 L 200.00,24.00 L 201.00,25.00 L 204.00,25.00 L 205.00,26.00 L 200.00,31.00 L 187.00,31.00 Z
M 177.00,6.00 L 176.00,13.00 L 178.00,27.00 L 175.00,35.00 L 169.00,39.00 L 151.00,43.00 L 146.00,47.00 L 146.00,52.00 L 149.00,55.00 L 163.00,62.00 L 162.00,72.00 L 155.00,79.00 L 146.00,84.00 L 138.00,92.00 L 134.00,99.00 L 136.00,102.00 L 149.00,103.00 L 162.00,108.00 L 171.00,118.00 L 172.00,135.00 L 168.00,161.00 L 168.00,182.00 L 173.00,205.00 L 189.00,205.00 L 185.00,195.00 L 183.00,179.00 L 185.00,120.00 L 182.00,109.00 L 175.00,99.00 L 181.00,98.00 L 179.00,96.00 L 154.00,90.00 L 171.00,83.00 L 173.00,81.00 L 174.00,72.00 L 180.00,64.00 L 186.00,62.00 L 194.00,64.00 L 214.00,64.00 L 232.00,67.00 L 251.00,74.00 L 255.00,79.00 L 262.00,104.00 L 273.00,129.00 L 246.00,150.00 L 229.00,168.00 L 211.00,193.00 L 202.00,210.00 L 135.00,217.00 L 130.00,220.00 L 125.00,232.00 L 119.00,269.00 L 119.00,288.00 L 122.00,295.00 L 128.00,301.00 L 142.00,305.00 L 212.00,305.00 L 222.00,302.00 L 226.00,294.00 L 225.00,249.00 L 227.00,247.00 L 231.00,278.00 L 239.00,285.00 L 255.00,293.00 L 259.00,298.00 L 258.00,304.00 L 255.00,306.00 L 236.00,305.00 L 228.00,308.00 L 220.00,315.00 L 218.00,319.00 L 219.00,323.00 L 223.00,323.00 L 230.00,317.00 L 232.00,318.00 L 230.00,324.00 L 233.00,325.00 L 266.00,319.00 L 269.00,316.00 L 270.00,307.00 L 273.00,301.00 L 294.00,306.00 L 291.00,311.00 L 273.00,319.00 L 268.00,325.00 L 269.00,328.00 L 274.00,328.00 L 290.00,320.00 L 291.00,321.00 L 285.00,326.00 L 285.00,329.00 L 308.00,325.00 L 330.00,324.00 L 332.00,321.00 L 328.00,316.00 L 308.00,313.00 L 318.00,308.00 L 340.00,307.00 L 353.00,302.00 L 367.00,300.00 L 418.00,297.00 L 447.00,309.00 L 481.00,316.00 L 511.00,315.00 L 520.00,311.00 L 524.00,307.00 L 524.00,302.00 L 522.00,299.00 L 467.00,268.00 L 476.00,263.00 L 478.00,260.00 L 477.00,256.00 L 472.00,251.00 L 442.00,232.00 L 357.00,165.00 L 316.00,139.00 L 298.00,130.00 L 283.00,118.00 L 275.00,103.00 L 268.00,81.00 L 268.00,74.00 L 281.00,62.00 L 284.00,56.00 L 282.00,51.00 L 273.00,42.00 L 252.00,27.00 L 224.00,13.00 L 190.00,4.00 L 181.00,4.00 Z" fill="#002B6A" fill-rule="evenodd"/>
</svg>
