<?xml version="1.0" encoding="UTF-8"?>
<svg xmlns="http://www.w3.org/2000/svg" viewBox="0 0 500 122" role="img" aria-label="columb logo" preserveAspectRatio="xMidYMid meet">
  <path d="M 449.00,58.00 L 461.00,58.00 L 467.00,61.00 L 469.00,63.00 L 469.00,64.00 L 471.00,66.00 L 473.00,70.00 L 473.00,72.00 L 474.00,73.00 L 474.00,77.00 L 475.00,78.00 L 475.00,86.00 L 474.00,87.00 L 474.00,90.00 L 473.00,91.00 L 473.00,93.00 L 472.00,95.00 L 470.00,97.00 L 470.00,98.00 L 465.00,103.00 L 461.00,105.00 L 458.00,105.00 L 457.00,106.00 L 447.00,106.00 L 446.00,105.00 L 441.00,105.00 L 440.00,104.00 L 438.00,104.00 L 436.00,102.00 L 436.00,73.00 L 437.00,72.00 L 437.00,69.00 L 439.00,65.00 L 443.00,61.00 Z
M 118.00,56.00 L 120.00,56.00 L 121.00,57.00 L 125.00,57.00 L 126.00,58.00 L 128.00,58.00 L 130.00,59.00 L 137.00,66.00 L 139.00,70.00 L 139.00,72.00 L 140.00,73.00 L 140.00,78.00 L 141.00,79.00 L 141.00,84.00 L 140.00,85.00 L 140.00,90.00 L 137.00,96.00 L 135.00,98.00 L 135.00,99.00 L 132.00,102.00 L 126.00,105.00 L 122.00,105.00 L 121.00,106.00 L 119.00,106.00 L 118.00,105.00 L 113.00,105.00 L 107.00,102.00 L 101.00,96.00 L 99.00,92.00 L 99.00,90.00 L 98.00,89.00 L 98.00,85.00 L 97.00,84.00 L 97.00,77.00 L 98.00,76.00 L 98.00,72.00 L 102.00,64.00 L 108.00,59.00 L 110.00,58.00 L 112.00,58.00 L 113.00,57.00 L 117.00,57.00 Z
M 209.00,44.00 L 209.00,97.00 L 210.00,98.00 L 210.00,104.00 L 214.00,112.00 L 218.00,116.00 L 223.00,119.00 L 225.00,119.00 L 226.00,120.00 L 232.00,120.00 L 233.00,121.00 L 238.00,121.00 L 239.00,120.00 L 244.00,120.00 L 245.00,119.00 L 247.00,119.00 L 253.00,116.00 L 259.00,110.00 L 261.00,111.00 L 261.00,118.00 L 281.00,118.00 L 281.00,115.00 L 280.00,114.00 L 280.00,44.00 L 259.00,44.00 L 259.00,92.00 L 257.00,97.00 L 252.00,102.00 L 245.00,105.00 L 238.00,105.00 L 234.00,103.00 L 230.00,98.00 L 230.00,95.00 L 229.00,94.00 L 229.00,44.00 Z
M 295.00,44.00 L 295.00,118.00 L 315.00,118.00 L 315.00,69.00 L 321.00,61.00 L 326.00,59.00 L 333.00,60.00 L 337.00,64.00 L 339.00,70.00 L 339.00,118.00 L 358.00,118.00 L 359.00,116.00 L 358.00,115.00 L 358.00,70.00 L 361.00,63.00 L 368.00,59.00 L 376.00,60.00 L 380.00,64.00 L 381.00,67.00 L 381.00,118.00 L 402.00,118.00 L 401.00,61.00 L 397.00,51.00 L 392.00,46.00 L 385.00,43.00 L 375.00,42.00 L 364.00,45.00 L 354.00,52.00 L 351.00,48.00 L 345.00,44.00 L 333.00,42.00 L 323.00,45.00 L 314.00,53.00 L 313.00,45.00 L 311.00,43.00 Z
M 99.00,45.00 L 95.00,47.00 L 93.00,49.00 L 92.00,49.00 L 84.00,57.00 L 84.00,58.00 L 82.00,60.00 L 80.00,64.00 L 80.00,66.00 L 78.00,70.00 L 78.00,74.00 L 77.00,75.00 L 77.00,89.00 L 78.00,90.00 L 78.00,93.00 L 79.00,94.00 L 79.00,96.00 L 82.00,102.00 L 84.00,104.00 L 84.00,105.00 L 91.00,112.00 L 92.00,112.00 L 94.00,114.00 L 102.00,118.00 L 104.00,118.00 L 105.00,119.00 L 108.00,119.00 L 109.00,120.00 L 113.00,120.00 L 114.00,121.00 L 124.00,121.00 L 125.00,120.00 L 129.00,120.00 L 130.00,119.00 L 133.00,119.00 L 147.00,112.00 L 154.00,105.00 L 154.00,104.00 L 156.00,102.00 L 159.00,96.00 L 159.00,94.00 L 160.00,93.00 L 160.00,90.00 L 161.00,89.00 L 161.00,72.00 L 160.00,71.00 L 159.00,66.00 L 156.00,60.00 L 154.00,58.00 L 154.00,57.00 L 146.00,49.00 L 143.00,48.00 L 139.00,45.00 L 137.00,45.00 L 133.00,43.00 L 130.00,43.00 L 129.00,42.00 L 109.00,42.00 L 108.00,43.00 L 105.00,43.00 L 104.00,44.00 Z
M 13.00,51.00 L 6.00,59.00 L 3.00,65.00 L 3.00,67.00 L 1.00,71.00 L 1.00,76.00 L 0.00,77.00 L 0.00,85.00 L 1.00,86.00 L 1.00,91.00 L 2.00,92.00 L 3.00,97.00 L 9.00,107.00 L 13.00,111.00 L 23.00,117.00 L 25.00,117.00 L 29.00,119.00 L 32.00,119.00 L 33.00,120.00 L 39.00,120.00 L 40.00,121.00 L 45.00,121.00 L 46.00,120.00 L 55.00,120.00 L 56.00,119.00 L 62.00,118.00 L 70.00,114.00 L 70.00,110.00 L 68.00,107.00 L 68.00,105.00 L 66.00,102.00 L 66.00,100.00 L 60.00,103.00 L 54.00,104.00 L 53.00,105.00 L 49.00,105.00 L 48.00,106.00 L 42.00,106.00 L 41.00,105.00 L 34.00,104.00 L 24.00,95.00 L 21.00,88.00 L 21.00,85.00 L 20.00,84.00 L 20.00,77.00 L 21.00,76.00 L 22.00,70.00 L 25.00,65.00 L 29.00,61.00 L 37.00,57.00 L 53.00,57.00 L 63.00,62.00 L 65.00,62.00 L 66.00,58.00 L 70.00,51.00 L 70.00,49.00 L 61.00,44.00 L 59.00,44.00 L 58.00,43.00 L 54.00,43.00 L 53.00,42.00 L 32.00,42.00 L 31.00,43.00 L 25.00,44.00 Z
M 174.00,5.00 L 174.00,118.00 L 194.00,118.00 L 193.00,116.00 L 193.00,5.00 Z
M 417.00,5.00 L 417.00,115.00 L 422.00,117.00 L 425.00,117.00 L 426.00,118.00 L 430.00,118.00 L 431.00,119.00 L 438.00,119.00 L 439.00,120.00 L 446.00,120.00 L 447.00,121.00 L 458.00,121.00 L 459.00,120.00 L 464.00,120.00 L 465.00,119.00 L 471.00,118.00 L 477.00,115.00 L 488.00,105.00 L 493.00,96.00 L 494.00,90.00 L 495.00,89.00 L 495.00,73.00 L 494.00,72.00 L 494.00,68.00 L 493.00,67.00 L 493.00,65.00 L 490.00,59.00 L 480.00,48.00 L 477.00,47.00 L 475.00,45.00 L 473.00,45.00 L 469.00,43.00 L 463.00,43.00 L 462.00,42.00 L 457.00,42.00 L 456.00,43.00 L 452.00,43.00 L 451.00,44.00 L 446.00,45.00 L 441.00,48.00 L 437.00,52.00 L 436.00,51.00 L 436.00,5.00 L 430.00,5.00 L 429.00,4.00 L 428.00,5.00 Z" fill="#002B6A" fill-rule="evenodd"/>
</svg>
